<?xml version="1.0" standalone="no"?>
<!DOCTYPE svg PUBLIC "-//W3C//DTD SVG 1.1//EN" "http://www.w3.org/Graphics/SVG/1.1/DTD/svg11.dtd">
<svg xmlns="http://www.w3.org/2000/svg" xmlns:xlink="http://www.w3.org/1999/xlink" xmlns:serif="http://www.serif.com/" width="162" height="239" viewBox="0 0 162 239" version="1.1" xml:space="preserve" style="fill-rule:evenodd;clip-rule:evenodd;stroke-linejoin:round;stroke-miterlimit:2;">
    <g transform="matrix(1,0,0,1,-2231.999896,-1598.859555)">
        <g id="_-Group-" serif:id="&lt;Group&gt;">
            <path id="_-Path-" serif:id="&lt;Path&gt;" d="M2393.123,1681.274C2393.123,1698.116 2393.282,1714.959 2393.091,1731.799C2392.635,1771.951 2373.705,1801.209 2339.615,1821.239C2326.524,1828.93 2312.241,1833.726 2297.513,1837.217C2291.33,1838.683 2287.691,1836.716 2286.496,1831.393C2285.258,1825.879 2287.808,1822.335 2294.024,1820.936C2319.505,1815.202 2341.556,1803.456 2358.328,1783.111C2370.529,1768.311 2375.495,1750.862 2375.657,1731.786C2375.835,1710.868 2375.201,1689.972 2374.707,1669.069C2374.653,1666.809 2375.041,1664.198 2372.228,1663.193C2369.313,1662.151 2367.568,1664.234 2365.93,1666.092C2352.377,1681.48 2336.552,1694.36 2319.961,1706.16C2304.191,1717.377 2287.008,1726.278 2268.643,1732.697C2260.618,1735.502 2252.677,1738.553 2244.624,1741.271C2237.854,1743.556 2234.7,1742.377 2232.853,1737.374C2230.599,1731.265 2232.919,1725.059 2238.551,1722.726C2245.426,1719.878 2252.435,1717.354 2259.296,1714.475C2290.578,1701.347 2316.922,1681.344 2339.676,1656.405C2341.161,1654.778 2343.628,1653.188 2342.649,1650.622C2341.709,1648.162 2338.924,1648.336 2336.671,1647.969C2332.649,1647.315 2328.646,1646.544 2324.615,1645.96C2321.64,1645.53 2318.986,1644.817 2318.322,1641.339C2317.616,1637.639 2319.39,1635.253 2322.469,1633.534C2331.907,1628.266 2341.341,1622.991 2350.761,1617.691C2360.491,1612.217 2370.222,1606.747 2379.915,1601.209C2388.406,1596.357 2393.626,1599.056 2393.782,1608.982C2393.936,1618.713 2393.233,1628.454 2393.149,1638.193C2393.026,1652.552 2393.117,1666.913 2393.123,1681.274Z" style="fill:white;fill-rule:nonzero;"/>
            <path id="_-Path-1" serif:id="&lt;Path&gt;" d="M2361.48,1687.364C2362.891,1689.699 2363.019,1691.685 2362.97,1693.575C2362.529,1710.719 2362.666,1727.882 2361.326,1744.999C2359.939,1762.718 2350.592,1776.044 2337.722,1787.292C2329.816,1794.202 2320.907,1799.589 2311.196,1803.696C2307.379,1805.31 2305.507,1804.866 2305.511,1800.367C2305.531,1778.056 2305.505,1755.745 2305.505,1733.433C2305.505,1730.377 2306.667,1727.926 2309.401,1726.365C2328.224,1715.617 2345.552,1702.854 2361.48,1687.364Z" style="fill:white;fill-rule:nonzero;"/>
            <path id="_-Path-2" serif:id="&lt;Path&gt;" d="M2292.87,1752.531C2291.46,1769.692 2292.173,1786.888 2292.187,1804.067C2292.191,1808.411 2290.435,1810.224 2286.463,1810.57C2277.65,1811.339 2268.847,1812.433 2260.018,1812.744C2254.032,1812.955 2248.171,1814.512 2242.102,1813.835C2235.624,1813.112 2233.219,1811.291 2232.727,1804.724C2231.627,1790.042 2232.268,1775.323 2232.334,1760.623C2232.36,1754.879 2236.327,1751.786 2244.746,1750.632C2257.567,1748.874 2269.735,1744.977 2281.685,1740.216C2290.425,1736.734 2292.702,1738.276 2292.866,1747.745C2292.894,1749.34 2292.87,1750.936 2292.87,1752.531Z" style="fill:white;fill-rule:nonzero;"/>
        </g>
    </g>
</svg>