<?xml version="1.0" standalone="no"?>
<!DOCTYPE svg PUBLIC "-//W3C//DTD SVG 1.1//EN" "http://www.w3.org/Graphics/SVG/1.1/DTD/svg11.dtd">
<svg xmlns="http://www.w3.org/2000/svg" xmlns:xlink="http://www.w3.org/1999/xlink" xmlns:serif="http://www.serif.com/" width="141" height="208" viewBox="0 0 141 208" version="1.1" xml:space="preserve" style="fill-rule:evenodd;clip-rule:evenodd;stroke-linejoin:round;stroke-miterlimit:2;">
    <g transform="matrix(1,0,0,1,-1246.693231,-1590.653709)">
        <g id="_-Group-" serif:id="&lt;Group&gt;">
            <path id="_-Path-" serif:id="&lt;Path&gt;" d="M1386.482,1662.155C1386.482,1676.767 1386.62,1691.381 1386.454,1705.991C1386.058,1740.826 1369.635,1766.21 1340.059,1783.587C1328.702,1790.26 1316.309,1794.421 1303.532,1797.45C1298.167,1798.722 1295.01,1797.015 1293.973,1792.398C1292.899,1787.613 1295.112,1784.538 1300.505,1783.325C1322.611,1778.35 1341.743,1768.159 1356.294,1750.508C1366.879,1737.668 1371.188,1722.53 1371.329,1705.979C1371.483,1687.831 1370.933,1669.701 1370.504,1651.567C1370.458,1649.606 1370.794,1647.341 1368.354,1646.468C1365.824,1645.565 1364.31,1647.371 1362.89,1648.984C1351.131,1662.334 1337.401,1673.508 1323.007,1683.746C1309.325,1693.477 1294.418,1701.2 1278.484,1706.77C1271.522,1709.203 1264.633,1711.85 1257.646,1714.208C1251.772,1716.191 1249.036,1715.168 1247.434,1710.827C1245.477,1705.527 1247.49,1700.143 1252.377,1698.118C1258.341,1695.647 1264.423,1693.458 1270.375,1690.961C1297.515,1679.571 1320.371,1662.217 1340.112,1640.58C1341.4,1639.168 1343.541,1637.789 1342.691,1635.563C1341.876,1633.428 1339.46,1633.579 1337.504,1633.261C1334.016,1632.693 1330.542,1632.024 1327.045,1631.518C1324.464,1631.144 1322.161,1630.526 1321.585,1627.508C1320.973,1624.298 1322.512,1622.228 1325.183,1620.737C1333.371,1616.166 1341.556,1611.59 1349.729,1606.991C1358.17,1602.242 1366.614,1597.497 1375.023,1592.692C1382.39,1588.482 1386.919,1590.824 1387.054,1599.435C1387.187,1607.878 1386.578,1616.329 1386.505,1624.779C1386.397,1637.237 1386.477,1649.696 1386.482,1662.155Z" style="fill:rgb(25,36,51);fill-rule:nonzero;"/>
            <path id="_-Path-1" serif:id="&lt;Path&gt;" d="M1359.029,1667.439C1360.253,1669.465 1360.364,1671.188 1360.322,1672.827C1359.939,1687.702 1360.058,1702.593 1358.895,1717.442C1357.692,1732.816 1349.583,1744.377 1338.416,1754.136C1331.558,1760.13 1323.828,1764.804 1315.403,1768.367C1312.091,1769.767 1310.467,1769.383 1310.471,1765.479C1310.488,1746.122 1310.465,1726.765 1310.465,1707.409C1310.465,1704.756 1311.473,1702.63 1313.845,1701.276C1330.176,1691.951 1345.21,1680.878 1359.029,1667.439Z" style="fill:rgb(116,175,241);fill-rule:nonzero;"/>
            <path id="_-Path-2" serif:id="&lt;Path&gt;" d="M1299.503,1723.977C1298.281,1738.866 1298.899,1753.785 1298.911,1768.689C1298.915,1772.458 1297.391,1774.031 1293.945,1774.332C1286.299,1774.998 1278.662,1775.947 1271.001,1776.217C1265.808,1776.401 1260.723,1777.751 1255.458,1777.164C1249.837,1776.537 1247.751,1774.957 1247.324,1769.259C1246.37,1756.521 1246.926,1743.751 1246.983,1730.997C1247.005,1726.014 1250.447,1723.331 1257.752,1722.329C1268.875,1720.804 1279.431,1717.423 1289.8,1713.293C1297.382,1710.272 1299.357,1711.61 1299.5,1719.825C1299.524,1721.209 1299.503,1722.593 1299.503,1723.977Z" style="fill:rgb(23,106,197);fill-rule:nonzero;"/>
        </g>
    </g>
</svg>