<?xml version="1.0" encoding="UTF-8"?>
<svg id="Camada_2" data-name="Camada 2" xmlns="http://www.w3.org/2000/svg" viewBox="0 0 890.63 200">
  <defs>
    <style>
      .cls-1 {
        fill-rule: evenodd;
      }

      .cls-1, .cls-2 {
        fill: #fff;
      }
    </style>
  </defs>
  <g id="Camada_1-2" data-name="Camada 1">
    <g>
      <g id="_Path_" data-name="&amp;lt;Path&amp;gt;">
        <path class="cls-1" d="M134.95,32.94c.07-8.16.66-16.31.53-24.46-.13-8.31-4.5-10.57-11.61-6.51-8.12,4.64-16.27,9.22-24.41,13.8-7.89,4.44-15.79,8.86-23.69,13.27-2.58,1.44-4.06,3.44-3.47,6.54.56,2.91,2.78,3.51,5.27,3.87,3.38.49,6.73,1.13,10.1,1.68,1.89.31,4.22.16,5.01,2.22.82,2.15-1.25,3.48-2.49,4.84-19.05,20.88-41.12,37.64-67.31,48.63-5.75,2.41-11.62,4.52-17.37,6.91-4.72,1.95-6.66,7.15-4.77,12.27,1.55,4.19,4.19,5.18,9.86,3.26,6.74-2.28,13.39-4.83,20.11-7.18,15.38-5.38,29.77-12.83,42.97-22.22,13.89-9.88,27.15-20.67,38.5-33.55,1.37-1.56,2.83-3.3,5.27-2.43,2.36.84,2.03,3.03,2.08,4.92.41,17.5.95,35,.8,52.52-.14,15.98-4.29,30.59-14.51,42.98-14.05,17.04-32.51,26.87-53.85,31.68-5.21,1.17-7.34,4.14-6.3,8.76,1,4.46,4.05,6.1,9.23,4.88,12.33-2.92,24.29-6.94,35.26-13.38,28.55-16.77,44.4-41.27,44.78-74.9.16-14.1.03-28.21.03-42.31,0-12.03-.08-24.05.02-36.08Z"/>
      </g>
      <g id="_Path_-2" data-name="&amp;lt;Path&amp;gt;">
        <path class="cls-1" d="M108.43,74.12c-13.34,12.97-27.85,23.66-43.61,32.66-2.29,1.31-3.26,3.36-3.26,5.92,0,18.68.02,37.37,0,56.05,0,3.77,1.56,4.14,4.76,2.79,8.13-3.44,15.59-7.95,22.21-13.74,10.78-9.42,18.61-20.58,19.77-35.42,1.12-14.33,1.01-28.71,1.38-43.06.04-1.58-.07-3.25-1.25-5.2Z"/>
      </g>
      <g id="_Path_-3" data-name="&amp;lt;Path&amp;gt;">
        <path class="cls-1" d="M50.97,124.68c-.14-7.93-2.04-9.22-9.36-6.31-10.01,3.99-20.2,7.25-30.93,8.72-7.05.97-10.37,3.56-10.39,8.37-.06,12.31-.59,24.64.33,36.93.41,5.5,2.43,7.02,7.85,7.63,5.08.57,9.99-.74,15-.91,7.39-.26,14.77-1.18,22.15-1.82,3.33-.29,4.8-1.81,4.79-5.45-.01-14.39-.61-28.79.57-43.16,0-1.34.02-2.67,0-4.01Z"/>
      </g>
      <g>
        <path class="cls-2" d="M186.65,50.3h20.79l36.47,92.4h-22.33l-6.72-18.55h-35.56l-6.79,18.55h-22.4l36.54-92.4ZM186.3,105.81h21.63l-10.71-30.31h-.21l-10.71,30.31Z"/>
        <path class="cls-2" d="M277.09,83.55c3.78,0,7.23.31,10.36.94,3.13.63,5.75,1.34,7.88,2.14,2.12.79,3.49,1.45,4.1,1.96l-6.93,12.53c-.89-.65-2.53-1.49-4.94-2.52-2.4-1.03-5.08-1.54-8.02-1.54-2.24,0-4.13.34-5.67,1.02-1.54.68-2.31,1.74-2.31,3.18s.85,2.6,2.56,3.46c1.7.87,4.17,1.62,7.38,2.28,2.8.56,5.65,1.45,8.54,2.66,2.89,1.21,5.31,3,7.25,5.36,1.94,2.36,2.91,5.5,2.91,9.42s-.86,7.33-2.59,9.94c-1.73,2.61-4.01,4.64-6.86,6.09-2.85,1.45-5.93,2.46-9.24,3.04-3.31.58-6.53.88-9.66.88-4.39,0-8.2-.4-11.45-1.19-3.24-.79-5.87-1.7-7.88-2.73-2.01-1.03-3.41-1.84-4.2-2.45l6.86-14c1.21,1.03,3.2,2.18,5.95,3.47,2.75,1.28,5.67,1.92,8.75,1.92s5.3-.44,6.93-1.33c1.63-.89,2.45-2.05,2.45-3.5,0-1.17-.4-2.1-1.19-2.8-.79-.7-1.91-1.31-3.36-1.82-1.45-.51-3.2-.98-5.25-1.4-1.87-.37-3.85-.96-5.95-1.75s-4.08-1.88-5.95-3.26c-1.87-1.38-3.38-3.12-4.55-5.21-1.17-2.1-1.75-4.64-1.75-7.63,0-3.83,1.24-7,3.71-9.52,2.47-2.52,5.67-4.42,9.59-5.71,3.92-1.28,8.1-1.92,12.53-1.92Z"/>
        <path class="cls-2" d="M337.29,83.55c3.78,0,7.23.31,10.36.94,3.13.63,5.75,1.34,7.88,2.14,2.12.79,3.49,1.45,4.1,1.96l-6.93,12.53c-.89-.65-2.53-1.49-4.94-2.52-2.4-1.03-5.08-1.54-8.02-1.54-2.24,0-4.13.34-5.67,1.02-1.54.68-2.31,1.74-2.31,3.18s.85,2.6,2.56,3.46c1.7.87,4.17,1.62,7.38,2.28,2.8.56,5.65,1.45,8.54,2.66,2.89,1.21,5.31,3,7.25,5.36,1.94,2.36,2.91,5.5,2.91,9.42s-.86,7.33-2.59,9.94c-1.73,2.61-4.01,4.64-6.86,6.09-2.85,1.45-5.93,2.46-9.24,3.04-3.31.58-6.53.88-9.66.88-4.39,0-8.2-.4-11.45-1.19-3.24-.79-5.87-1.7-7.88-2.73-2.01-1.03-3.41-1.84-4.2-2.45l6.86-14c1.21,1.03,3.2,2.18,5.95,3.47,2.75,1.28,5.67,1.92,8.75,1.92s5.3-.44,6.93-1.33c1.63-.89,2.45-2.05,2.45-3.5,0-1.17-.4-2.1-1.19-2.8-.79-.7-1.91-1.31-3.36-1.82-1.45-.51-3.2-.98-5.25-1.4-1.87-.37-3.85-.96-5.95-1.75s-4.08-1.88-5.95-3.26c-1.87-1.38-3.38-3.12-4.55-5.21-1.17-2.1-1.75-4.64-1.75-7.63,0-3.83,1.24-7,3.71-9.52,2.47-2.52,5.67-4.42,9.59-5.71,3.92-1.28,8.1-1.92,12.53-1.92Z"/>
        <path class="cls-2" d="M388.67,118.48c.14,2.05.79,3.88,1.96,5.5,1.17,1.61,2.78,2.86,4.83,3.74,2.05.89,4.53,1.33,7.42,1.33,2.71,0,5.14-.27,7.31-.8,2.17-.54,4.06-1.24,5.67-2.1,1.61-.86,2.86-1.74,3.75-2.62l8.26,13.16c-1.21,1.26-2.87,2.47-4.97,3.64-2.1,1.17-4.88,2.13-8.33,2.91-3.45.77-7.82,1.15-13.09,1.15-6.39,0-12.06-1.19-17.01-3.57-4.95-2.38-8.82-5.88-11.62-10.5s-4.2-10.29-4.2-17.01c0-5.6,1.21-10.64,3.64-15.12,2.43-4.48,5.97-8.04,10.64-10.67,4.67-2.64,10.29-3.96,16.87-3.96s11.68,1.14,16.27,3.43c4.6,2.29,8.13,5.68,10.61,10.19,2.47,4.5,3.71,10.12,3.71,16.83v2.21c0,1.14-.05,1.9-.14,2.28h-41.58ZM410.44,107.35c-.05-1.49-.44-2.99-1.19-4.48-.75-1.49-1.87-2.72-3.36-3.67-1.49-.96-3.41-1.44-5.74-1.44s-4.36.47-5.95,1.4c-1.59.93-2.8,2.12-3.64,3.57-.84,1.45-1.33,2.99-1.47,4.62h21.35Z"/>
        <path class="cls-2" d="M472.6,127.65c2.66,0,4.85-.46,6.58-1.37,1.73-.91,2.89-1.64,3.5-2.21l9.73,14.42c-.75.61-2.03,1.39-3.85,2.34-1.82.96-4.1,1.79-6.83,2.49-2.73.7-5.84,1.05-9.34,1.05-6.58,0-12.37-1.25-17.36-3.75-4.99-2.5-8.88-6.03-11.65-10.6-2.78-4.57-4.17-9.94-4.17-16.1s1.39-11.57,4.17-16.1c2.78-4.53,6.66-8.04,11.65-10.53,4.99-2.5,10.78-3.75,17.36-3.75,3.45,0,6.54.36,9.27,1.08,2.73.72,5.03,1.54,6.9,2.45,1.87.91,3.17,1.69,3.92,2.35l-9.94,14.56c-.33-.33-.92-.79-1.79-1.4-.86-.61-1.97-1.14-3.32-1.61-1.35-.47-2.96-.7-4.83-.7-2.29,0-4.42.58-6.41,1.75-1.98,1.17-3.58,2.78-4.79,4.83-1.21,2.05-1.82,4.41-1.82,7.07s.61,5.03,1.82,7.11c1.21,2.08,2.81,3.7,4.79,4.87,1.98,1.17,4.12,1.75,6.41,1.75Z"/>
        <path class="cls-2" d="M530.34,144.38c-6.3,0-11.89-1.29-16.76-3.88-4.88-2.59-8.7-6.16-11.48-10.71s-4.16-9.77-4.16-15.64,1.39-11.12,4.16-15.72c2.78-4.6,6.6-8.23,11.48-10.89,4.88-2.66,10.46-3.99,16.76-3.99s11.85,1.33,16.66,3.99c4.81,2.66,8.56,6.29,11.27,10.89,2.71,4.6,4.06,9.83,4.06,15.72s-1.35,11.09-4.06,15.64c-2.71,4.55-6.46,8.12-11.27,10.71-4.81,2.59-10.36,3.88-16.66,3.88ZM530.34,126.88c2.43,0,4.53-.54,6.3-1.61,1.77-1.07,3.15-2.59,4.13-4.55.98-1.96,1.47-4.17,1.47-6.65s-.49-4.76-1.47-6.72c-.98-1.96-2.36-3.5-4.13-4.62-1.77-1.12-3.87-1.68-6.3-1.68s-4.54.56-6.33,1.68c-1.8,1.12-3.2,2.66-4.2,4.62-1,1.96-1.51,4.2-1.51,6.72s.5,4.69,1.51,6.65c1,1.96,2.4,3.48,4.2,4.55,1.8,1.07,3.91,1.61,6.33,1.61Z"/>
        <path class="cls-2" d="M612.94,83.55c4.01,0,7.93.82,11.76,2.45,3.83,1.63,6.98,4.21,9.45,7.74,2.47,3.52,3.71,8.16,3.71,13.9v35.07h-21.35v-31.57c0-4.11-.98-7.2-2.94-9.28s-4.53-3.12-7.7-3.12c-2.1,0-4.07.55-5.92,1.65-1.84,1.1-3.34,2.64-4.48,4.62s-1.71,4.26-1.71,6.82v30.87h-21.28v-57.47h21.28v8.47c.56-1.54,1.74-3.09,3.54-4.65,1.8-1.56,4.06-2.87,6.79-3.92,2.73-1.05,5.68-1.57,8.85-1.57Z"/>
        <path class="cls-2" d="M676.01,83.55c3.78,0,7.23.31,10.36.94,3.13.63,5.75,1.34,7.88,2.14,2.12.79,3.49,1.45,4.09,1.96l-6.93,12.53c-.89-.65-2.53-1.49-4.93-2.52-2.4-1.03-5.08-1.54-8.02-1.54-2.24,0-4.13.34-5.67,1.02-1.54.68-2.31,1.74-2.31,3.18s.85,2.6,2.55,3.46c1.7.87,4.17,1.62,7.38,2.28,2.8.56,5.65,1.45,8.54,2.66,2.89,1.21,5.31,3,7.25,5.36,1.94,2.36,2.91,5.5,2.91,9.42s-.86,7.33-2.59,9.94c-1.73,2.61-4.01,4.64-6.86,6.09-2.85,1.45-5.93,2.46-9.24,3.04-3.31.58-6.53.88-9.66.88-4.39,0-8.2-.4-11.44-1.19-3.24-.79-5.87-1.7-7.88-2.73-2.01-1.03-3.41-1.84-4.2-2.45l6.86-14c1.21,1.03,3.2,2.18,5.95,3.47,2.75,1.28,5.67,1.92,8.75,1.92s5.3-.44,6.93-1.33c1.63-.89,2.45-2.05,2.45-3.5,0-1.17-.4-2.1-1.19-2.8-.79-.7-1.91-1.31-3.36-1.82-1.45-.51-3.2-.98-5.25-1.4-1.87-.37-3.85-.96-5.95-1.75-2.1-.79-4.08-1.88-5.95-3.26-1.87-1.38-3.38-3.12-4.55-5.21-1.17-2.1-1.75-4.64-1.75-7.63,0-3.83,1.24-7,3.71-9.52s5.67-4.42,9.59-5.71c3.92-1.28,8.1-1.92,12.53-1.92Z"/>
        <path class="cls-2" d="M730.61,111.83c0,4.57.86,8.22,2.59,10.96,1.73,2.73,4.62,4.09,8.68,4.09s7.08-1.36,8.79-4.09c1.7-2.73,2.56-6.38,2.56-10.96v-26.6h21v28.84c0,6.16-1.27,11.51-3.82,16.06-2.54,4.55-6.22,8.06-11.03,10.54-4.81,2.47-10.64,3.71-17.5,3.71s-12.62-1.24-17.43-3.71c-4.81-2.47-8.47-5.98-10.99-10.54-2.52-4.55-3.78-9.91-3.78-16.06v-28.84h20.93v26.6Z"/>
        <path class="cls-2" d="M808.45,142.7h-21.35V46.38h21.35v96.32Z"/>
        <path class="cls-2" d="M861.16,104.83v20.16h-17.29v-20.16h-20.16v-17.15h20.16v-20.16h17.29v20.16h20.02v17.15h-20.02Z"/>
      </g>
    </g>
  </g>
</svg>